# xmcd CD database file
#
# Track frame offsets:
#	150
#	16870
#	32802
#	52230
#	72690
#
# Disc length: 1198 seconds
#
# Revision: 0
# Processed by: cddbd v1.5.1PL2 Copyright (c) Steve Scherf et al.
# Submitted via: CDex 1.51
#
DISCID=4504ac05
DTITLE=韻踏合組合 - VOL . 4 ( 青盤 )
DYEAR=2005
DGENRE=Hip-Hop
TTITLE0=THE SHOW - IFK　pro.Mr.FUKUSAN
TTITLE1=道頓堀ナイツ - CHIEF ROKKA　pro.NORIMITSU
TTITLE2=ER 1 緊急救命室 - ERONE　pro.AKIO from HIRAOCAN
TTITLE3=BACKYARD - HEAD BANGERZ
TTITLE4=WAKIN' BIG Pt.2 - SATUSSY,遊戯 feat. GAZZIRA
EXTD=YEAR: 2005/06/28
EXTT0=
EXTT1=
EXTT2=
EXTT3=
EXTT4=
PLAYORDER=
